<?xml version="1.0" encoding="UTF-8" standalone="no"?>
<!DOCTYPE svg PUBLIC "-//W3C//DTD SVG 1.1//EN"
 "http://www.w3.org/Graphics/SVG/1.1/DTD/svg11.dtd">
<!-- Generated by graphviz version 2.50.0 (20211204.2007)
 -->
<!-- Title: G Pages: 1 -->
<svg width="502pt" height="279pt"
 viewBox="0.00 0.00 502.00 279.00" xmlns="http://www.w3.org/2000/svg" xmlns:xlink="http://www.w3.org/1999/xlink">
<g id="graph0" class="graph" transform="scale(1 1) rotate(0) translate(4 275)">
<title>G</title>
<polygon fill="white" stroke="transparent" points="-4,4 -4,-275 498,-275 498,4 -4,4"/>
<g id="clust1" class="cluster">
<title>clusterD</title>
<polygon fill="none" stroke="black" points="251,-8 251,-156 486,-156 486,-8 251,-8"/>
<text text-anchor="middle" x="368.5" y="-140.8" font-family="Times,serif" font-size="14.00">Local</text>
</g>
<g id="clust3" class="cluster">
<title>clusterM</title>
<polygon fill="none" stroke="black" points="8,-8 8,-156 243,-156 243,-8 8,-8"/>
<text text-anchor="middle" x="125.5" y="-140.8" font-family="Times,serif" font-size="14.00">Local</text>
</g>
<!-- NC -->
<g id="node1" class="node">
<title>NC</title>
<polygon fill="none" stroke="black" points="219,-271 165,-271 165,-235 219,-235 219,-271"/>
<text text-anchor="middle" x="192" y="-249.3" font-family="Times,serif" font-size="14.00" fill="#000000">NC</text>
</g>
<!-- SlaughterServer1 -->
<g id="node2" class="node">
<title>SlaughterServer1</title>
<polygon fill="none" stroke="black" points="126,-125 16,-125 16,-89 126,-89 126,-125"/>
<text text-anchor="middle" x="71" y="-103.3" font-family="Times,serif" font-size="14.00" fill="#000000">SlaughterServer1</text>
</g>
<!-- NC&#45;&gt;SlaughterServer1 -->
<g id="edge1" class="edge">
<title>NC&#45;&gt;SlaughterServer1</title>
<path fill="none" stroke="black" d="M171.17,-227.21C148.96,-200.78 113.98,-159.16 91.79,-132.74"/>
<polygon fill="black" stroke="black" points="168.53,-229.51 177.64,-234.92 173.89,-225.01 168.53,-229.51"/>
<polygon fill="black" stroke="black" points="94.45,-130.47 85.34,-125.06 89.09,-134.97 94.45,-130.47"/>
<text text-anchor="middle" x="149.5" y="-186.8" font-family="Times,serif" font-size="14.00">ϟ</text>
</g>
<!-- SlaughterServer2 -->
<g id="node3" class="node">
<title>SlaughterServer2</title>
<polygon fill="none" stroke="black" points="369,-125 259,-125 259,-89 369,-89 369,-125"/>
<text text-anchor="middle" x="314" y="-103.3" font-family="Times,serif" font-size="14.00" fill="#000000">SlaughterServer2</text>
</g>
<!-- NC&#45;&gt;SlaughterServer2 -->
<g id="edge2" class="edge">
<title>NC&#45;&gt;SlaughterServer2</title>
<path fill="none" stroke="black" d="M213,-227.21C235.4,-200.78 270.66,-159.16 293.04,-132.74"/>
<polygon fill="black" stroke="black" points="210.27,-225.02 206.47,-234.92 215.61,-229.55 210.27,-225.02"/>
<polygon fill="black" stroke="black" points="295.75,-134.95 299.54,-125.06 290.41,-130.43 295.75,-134.95"/>
<text text-anchor="middle" x="252.5" y="-186.8" font-family="Times,serif" font-size="14.00">ϟ</text>
</g>
<!-- LocalDB1 -->
<g id="node6" class="node">
<title>LocalDB1</title>
<polygon fill="none" stroke="black" points="234.5,-125 161.5,-125 161.5,-89 234.5,-89 234.5,-125"/>
<text text-anchor="middle" x="198" y="-103.3" font-family="Times,serif" font-size="14.00" fill="#000000">LocalDB1</text>
</g>
<!-- SlaughterServer1&#45;&gt;LocalDB1 -->
<g id="edge5" class="edge">
<title>SlaughterServer1&#45;&gt;LocalDB1</title>
<path fill="none" stroke="black" d="M126.07,-107C134.46,-107 142.85,-107 151.24,-107"/>
<polygon fill="black" stroke="black" points="151.47,-110.5 161.47,-107 151.47,-103.5 151.47,-110.5"/>
</g>
<!-- SlaughterClient1 -->
<g id="node7" class="node">
<title>SlaughterClient1</title>
<polygon fill="none" stroke="black" points="125,-52 17,-52 17,-16 125,-16 125,-52"/>
<text text-anchor="middle" x="71" y="-30.3" font-family="Times,serif" font-size="14.00" fill="#000000">SlaughterClient1</text>
</g>
<!-- SlaughterServer1&#45;&gt;SlaughterClient1 -->
<g id="edge6" class="edge">
<title>SlaughterServer1&#45;&gt;SlaughterClient1</title>
<path fill="none" stroke="black" d="M71,-88.81C71,-80.79 71,-71.05 71,-62.07"/>
<polygon fill="black" stroke="black" points="74.5,-62.03 71,-52.03 67.5,-62.03 74.5,-62.03"/>
</g>
<!-- LocalDB2 -->
<g id="node4" class="node">
<title>LocalDB2</title>
<polygon fill="none" stroke="black" points="477.5,-125 404.5,-125 404.5,-89 477.5,-89 477.5,-125"/>
<text text-anchor="middle" x="441" y="-103.3" font-family="Times,serif" font-size="14.00" fill="#000000">LocalDB2</text>
</g>
<!-- SlaughterServer2&#45;&gt;LocalDB2 -->
<g id="edge3" class="edge">
<title>SlaughterServer2&#45;&gt;LocalDB2</title>
<path fill="none" stroke="black" d="M369.07,-107C377.46,-107 385.85,-107 394.24,-107"/>
<polygon fill="black" stroke="black" points="394.47,-110.5 404.47,-107 394.47,-103.5 394.47,-110.5"/>
</g>
<!-- SlaughterClient2 -->
<g id="node5" class="node">
<title>SlaughterClient2</title>
<polygon fill="none" stroke="black" points="368,-52 260,-52 260,-16 368,-16 368,-52"/>
<text text-anchor="middle" x="314" y="-30.3" font-family="Times,serif" font-size="14.00" fill="#000000">SlaughterClient2</text>
</g>
<!-- SlaughterServer2&#45;&gt;SlaughterClient2 -->
<g id="edge4" class="edge">
<title>SlaughterServer2&#45;&gt;SlaughterClient2</title>
<path fill="none" stroke="black" d="M314,-88.81C314,-80.79 314,-71.05 314,-62.07"/>
<polygon fill="black" stroke="black" points="317.5,-62.03 314,-52.03 310.5,-62.03 317.5,-62.03"/>
</g>
</g>
</svg>
